<?xml version="1.0" standalone="no"?>
<!DOCTYPE svg PUBLIC "-//W3C//DTD SVG 1.1//EN" "http://www.w3.org/Graphics/SVG/1.1/DTD/svg11.dtd" >
<svg xmlns="http://www.w3.org/2000/svg">
<metadata>
Created by FontForge 20120731 at Sat Dec 17 15:41:44 2016
 By admin
</metadata>
<defs>
<font id="iyoyo" horiz-adv-x="1024" >
  <font-face 
    font-family="iyoyo"
    font-weight="500"
    font-stretch="normal"
    units-per-em="1024"
    panose-1="2 0 6 3 0 0 0 0 0 0"
    ascent="896"
    descent="-128"
    x-height="792"
    bbox="0 -139.514 1350 896.205"
    underline-thickness="0"
    underline-position="0"
    unicode-range="U+0078-E7E4"
  />
<missing-glyph 
 />
    <glyph glyph-name=".notdef" 
 />
    <glyph glyph-name=".notdef" 
 />
    <glyph glyph-name=".null" horiz-adv-x="0" 
 />
    <glyph glyph-name="nonmarkingreturn" horiz-adv-x="341" 
 />
    <glyph glyph-name="x" unicode="x" horiz-adv-x="1001" 
d="M281 543q-27 -1 -53 -1h-83q-18 0 -36.5 -6t-32.5 -18.5t-23 -32t-9 -45.5v-76h912v41q0 16 -0.5 30t-0.5 18q0 13 -5 29t-17 29.5t-31.5 22.5t-49.5 9h-133v-97h-438v97zM955 310v-52q0 -23 0.5 -52t0.5 -58t-10.5 -47.5t-26 -30t-33 -16t-31.5 -4.5q-14 -1 -29.5 -0.5
t-29.5 0.5h-32l-45 128h-439l-44 -128h-29h-34q-20 0 -45 1q-25 0 -41 9.5t-25.5 23t-13.5 29.5t-4 30v167h911zM163 247q-12 0 -21 -8.5t-9 -21.5t9 -21.5t21 -8.5q13 0 22 8.5t9 21.5t-9 21.5t-22 8.5zM316 123q-8 -26 -14 -48q-5 -19 -10.5 -37t-7.5 -25t-3 -15t1 -14.5
t9.5 -10.5t21.5 -4h37h67h81h80h64h36q23 0 34 12t2 38q-5 13 -9.5 30.5t-9.5 34.5q-5 19 -11 39h-368zM336 498v228q0 11 2.5 23t10 21.5t20.5 15.5t34 6h188q31 0 51.5 -14.5t20.5 -52.5v-227h-327z" />
    <glyph glyph-name="time-1" unicode="&#xe605;" horiz-adv-x="1000" 
d="M488 687h54l-1 -251l273 -104l-23 -58l-304 112zM77 413q0 -89 34.5 -170t93 -140t139.5 -93.5t170.5 -34.5t170.5 34.5t139.5 93.5t93.5 140t35 170t-35 170t-93.5 139.5t-139.5 93.5t-170.5 35t-170.5 -35t-139.5 -93.5t-93 -139.5t-34.5 -170z" />
    <glyph glyph-name="weixin" unicode="&#xe60a;" 
d="M571 385q-8 0 -14.5 -6t-6.5 -15q0 -7 6.5 -13t14.5 -6q11 0 18.5 6t7.5 13q0 9 -7.5 15t-18.5 6zM504 483q12 0 19 7t7 19q0 11 -7 18t-19 7t-21 -7t-9 -18t9 -18.5t21 -7.5zM511.5 830q-90.5 0 -173 -35t-142 -95t-95 -142.5t-35.5 -173t35.5 -173t95 -142t142 -95
t173 -35.5t173 35.5t142.5 95t95 142t35 173t-35 173t-95 142.5t-142.5 95t-173 35zM428 272q-32 0 -72 12l-73 -37l21 62q-82 58 -82 138q0 73 60 123.5t146 50.5q75 0 134.5 -40.5t71.5 -103.5q-10 3 -19 3q-74 0 -124.5 -48t-50.5 -116q0 -20 6 -43q-6 -1 -18 -1z
M730 201l15 -52l-55 31q-53 -11 -63 -11q-73 0 -123.5 43.5t-50.5 106t50.5 106t123.5 43.5q70 0 122.5 -44t52.5 -106q0 -65 -72 -117zM360 534q-12 0 -21.5 -7t-9.5 -18t9.5 -18.5t21.5 -7.5q11 0 18.5 7t7.5 19q0 11 -7.5 18t-18.5 7zM685 385q-9 0 -15 -6t-6 -15
q0 -7 6.5 -13t14.5 -6q10 0 17.5 6t7.5 13q0 9 -7.5 15t-17.5 6z" />
    <glyph glyph-name="smile" unicode="&#xe60b;" 
d="M510 -64q-89 0 -171 34t-145 97.5t-97 145t-34 171t34 171.5t97 145t145 97t171.5 34t171 -34t144.5 -97q86 -86 116.5 -201t0 -230.5t-116.5 -201.5q-63 -63 -144.5 -97t-171.5 -34v0v0v0zM510 773q-78 0 -149 -29.5t-126 -84.5t-84.5 -126t-29.5 -149t29.5 -149
t84.5 -126t126 -84.5t149 -29.5t149 29.5t126 84.5q75 74 101.5 174.5t0 200.5t-101.5 175q-55 55 -126 84.5t-149 29.5v0v0zM351 262q2 -4 6.5 -9.5t19 -20t31.5 -25.5t44.5 -20t57.5 -9t59 8.5t49.5 21t36.5 24.5t23 21l8 9q2 0 4.5 -0.5t9.5 -2.5t12 -6t9.5 -12.5
t4.5 -20.5q-3 -4 -8.5 -10.5t-25.5 -23.5t-42.5 -30t-60.5 -23.5t-79 -10.5t-76.5 10t-56 24t-35.5 29t-21 24.5t-6 10.5v4t2 10.5t5.5 13t11 10t17.5 4.5v0zM380 527q-22 0 -38.5 -16t-16.5 -38.5t16.5 -38.5t39 -16t38.5 16t16 38.5t-16 38.5t-39 16v0v0zM661 527
q-23 0 -39 -16t-16 -38.5t16 -38.5t38.5 -16t39 16t16.5 38.5t-16.5 38.5t-38.5 16v0v0zM661 527z" />
    <glyph glyph-name="play" unicode="&#xe6bb;" 
d="M512 832q-91 0 -174 -35.5t-143 -95.5t-95.5 -143t-35.5 -174t35.5 -174t95.5 -143t143 -95.5t174 -35.5t174 35.5t143 95.5t95.5 143t35.5 174t-35.5 174t-95.5 143t-143 95.5t-174 35.5zM511.5 26q-97.5 0 -180 48t-130 130.5t-47.5 179.5t47.5 180t130 130.5t180 47.5
t180 -47.5t130.5 -130.5t48 -180t-48 -179.5t-130.5 -130.5t-180 -48zM684 412l-232 134q-16 10 -32.5 0.5t-16.5 -28.5v-268q0 -19 16.5 -28t32.5 0l232 134q17 9 17 28t-17 28z" />
    <glyph glyph-name="pic" unicode="&#xe67f;" 
d="M961 55v657q0 33 -11.5 57.5t-25 36t-34 18t-29.5 7t-19 0.5h-657q-10 0 -19 -0.5t-29.5 -7t-34.5 -18t-25 -36t-11 -57.5v-657q0 -24 6.5 -44t17 -32t23 -21t25.5 -13t23.5 -6.5t17.5 -2.5h6h657q46 0 76 24q2 2 3 2q6 6 11 12l3 3q11 15 18 34.5t7 31.5zM188 766h646
q10 0 16.5 -1t18 -6t18 -18t6.5 -33v-646q-1 -34 -26 -50q-159 166 -192 199q-28 28 -59 26q-13 0 -26 -5t-18 -9t-7 -7l-62 -54q-12 -12 -28 4q-40 40 -120 111q-25 25 -58 26q-35 2 -66 -29q-28 -28 -102 -95v529q0 58 59 58zM129 64v28q109 99 148 137q11 11 18 10
q7 0 14 -6v0v0l3 -3q73 -64 118 -109q25 -26 62 -28q15 0 28.5 6t20 11t6.5 6l62 54q9 8 21 -4q27 -28 156 -163h-594q-54 0 -62 50q-1 6 -1 11zM662.5 346q62.5 0 107 44.5t44.5 107t-44.5 107t-107 44.5t-107 -44.5t-44.5 -107t44.5 -107t107 -44.5zM662.5 585
q36.5 0 62 -25.5t25.5 -62t-25.5 -62t-62 -25.5t-62 25.5t-25.5 62t25.5 62t62 25.5z" />
    <glyph glyph-name="phone-1" unicode="&#xe614;" 
d="M462 39q0 22 14.5 37t35.5 15t35.5 -15t14.5 -37t-14.5 -37t-35.5 -15t-35.5 15t-14.5 37zM306 781h412q18 0 31 -13t13 -33v-514q0 -19 -13 -32.5t-31 -13.5h-412q-18 0 -31 13.5t-13 32.5v514q0 20 13 33t31 13zM163 -34q0 -35 23.5 -59.5t56.5 -24.5h539q33 0 56 24.5
t23 59.5v836q0 35 -23 59.5t-56 24.5h-539q-33 0 -56.5 -24.5t-23.5 -59.5v-836v0z" />
    <glyph glyph-name="warn" unicode="&#xe608;" 
d="M512 896q-138 0 -256 -69t-187 -187t-69 -256t69 -256t187 -187t256 -69t256 69t187 187t69 256t-69 256t-187 187t-256 69zM512 64q-24 0 -44 20t-20 44t20 44t44 20t44 -20t20 -44t-20 -44t-44 -20zM525 294q0 -14 -13.5 -14t-18.5 14l-45 346q1 6 5 16t20 27.5
t39 20.5q23 0 39 -16t21 -32l4 -16z" />
    <glyph glyph-name="add-img" unicode="&#xe664;" horiz-adv-x="1195" 
d="M456 393h35q0 30 20.5 51t49.5 21v36q-44 0 -74.5 -32t-30.5 -76zM560.5 644q-101.5 0 -173.5 -73.5t-72 -178t72 -178t174 -73.5q55 0 104 24q63 30 101.5 90t39.5 133v5q0 104 -72 177.5t-173.5 73.5zM665 248q-46 -35 -104 -35q-73 0 -124 52.5t-51 127t51 127
t123.5 52.5t124 -52.5t51.5 -126.5v-5q-1 -42 -20 -78.5t-51 -61.5zM1122 569v75q0 45 -31 76.5t-75 31.5h-175v36q0 45 -30.5 76.5t-74.5 31.5h-350q-44 0 -75 -31.5t-31 -76.5v-36h-175q-43 0 -74 -31.5t-31 -76.5v-575q0 -44 31 -76t74 -32h560q20 1 34 15t14 34v0
q0 20 -14 34.5t-34 14.5v0h-518q-20 0 -34.5 15t-14.5 36v503q0 21 14.5 36t34.5 15h215v84q0 20 14.5 35t35.5 15h298q20 0 34.5 -15t14.5 -35v-84h215q21 0 35.5 -15t14.5 -36v0v-225v0q1 -19 15.5 -32.5t33.5 -13.5v0q20 0 34.5 14.5t14.5 34.5v170v8zM1015 283v-365
q0 -19 -14 -32.5t-33 -13.5h-5q-19 0 -33 13.5t-14 32.5v365q0 19 14 32.5t33 13.5h5q19 0 33 -13.5t14 -32.5zM783 150h365q19 0 32.5 -14t13.5 -33v-5q0 -19 -13.5 -32.5t-32.5 -13.5h-365q-19 0 -32.5 13.5t-13.5 32.5v5q0 19 13.5 33t32.5 14z" />
    <glyph glyph-name="pause" unicode="&#xe696;" 
d="M410.5 587q-16.5 0 -28 -11.5t-11.5 -28.5v-309q0 -17 11.5 -28.5t28 -11.5t28 11.5t11.5 28.5v309q0 17 -11.5 28.5t-28 11.5zM946 572q-35 83 -99 147t-147 99q-85 36 -179 36t-180 -36q-83 -35 -147 -99t-99 -147q-36 -86 -36 -179.5t36 -179.5q35 -83 99 -147
t147 -99q86 -36 180 -36t179 36q83 35 147 99t99 147q36 86 36 179.5t-36 179.5zM675 26q-74 -31 -154.5 -31t-154.5 31q-71 31 -126 86t-85 126q-32 74 -32 154.5t32 154.5q30 71 85 126t126 86q74 31 154.5 31t154.5 -31q72 -31 127 -86t85 -126q31 -74 31 -154.5
t-31 -154.5q-30 -71 -85 -126t-127 -86zM631 587q-16 0 -27.5 -11.5t-11.5 -28.5v-309q0 -17 11.5 -28.5t27.5 -11.5t27.5 11.5t11.5 28.5v309q0 17 -11.5 28.5t-27.5 11.5z" />
    <glyph glyph-name="key" unicode="&#xe655;" 
d="M799 483h-431v160q0 41 43 76t100.5 35t100.5 -35t43 -76v-40v0v-1v-7h1q3 -21 18.5 -34.5t36.5 -13.5t36.5 13.5t18.5 34.5h1v48q0 92 -75 157.5t-180.5 65.5t-180.5 -65.5t-75 -157.5v-160h-32q-39 0 -67.5 -28t-28.5 -68v-383q0 -40 28.5 -68t67.5 -28h575q40 0 68 28
t28 68v383q0 40 -28 68t-68 28zM559 129v-43q0 -21 -14 -35.5t-33.5 -14.5t-33.5 14.5t-14 35.5v43q-29 14 -46.5 40.5t-17.5 59.5q0 46 32.5 78t79 32t79 -32t32.5 -78q0 -33 -17.5 -59.5t-46.5 -40.5z" />
    <glyph glyph-name="phone" unicode="&#xe627;" 
d="M515 849q-91 0 -173.5 -35t-142.5 -95t-95 -142.5t-35 -173.5t35 -174t95 -142.5t142.5 -95t173.5 -35.5t174 35.5t142.5 95t95 142.5t35.5 174t-35.5 173.5t-95 142.5t-142.5 95t-174 35zM543 574q33 57 73 120q11 18 31 4q4 -2 32 -23q-28 -46 -89 -148
q-9 5 -23.5 13.5t-15.5 9.5q-8 5 -9.5 13t1.5 11zM318 160q-22 12 -8 33q9 15 25.5 43t20.5 35q4 6 10.5 17.5t8 14t7 7t8 3.5t10.5 -3.5t16 -7.5t22 -15l3 -4l-1 -1l-1 -1v-1l-1 -1v-1l-1 -1l-1 -1v-1l-1 -1v-1l-1 -1l-1 -1v-1l-1 -1v-1l-1 -1l-1 -1v-1l-1 -1v-1l-1 -1v-1
l-1 -1l-1 -1v-1l-1 -1v-1l-1 -1l-1 -1v-1l-1 -1v-1l-1 -1l-1 -1v-1l-1 -1v-1l-1 -1l-1 -1v-1l-1 -1v-1l-1 -1l-1 -1v-1l-1 -1v-1l-1 -1l-1 -1v-1l-1 -1v-1l-1 -1v-1l-1 -1l-1 -1v-1l-1 -1v-1l-1 -1l-1 -1v-1l-1 -1v-1l-1 -1l-1 -1v-1l-1 -1v-1l-1 -1l-1 -1v-1l-1 -1v-1
l-1 -1l-1 -1v-1l-1 -1v-1l-1 -1l-1 -1v-1l-1 -1v-1l-1 -1l-1 -1v-1l-1 -1v-1l-1 -1l-1 -1v-1l-1 -1v-1l-1 -1l-1 -1v-1l-1 -1v-1l-1 -1l-1 -1v-1l-1 -1v-1l-1 -1l-1 -1v-1l-1 -1v-1l-1 -1v-1l-1 -1l-1 -1v-1l-1 -1v-1l-1 -1l-1 -1v-1l-1 -1v-1l-1 -1l-1 -1v-1l-1 -1v-1
l-1 -1l-1 -1v-1l-1 -1v-1l-1 -1l-1 -1v-1l-1 -1v-1l-1 -1l-1 -1v-1l-1 -1v-1l-1 -1v-1l-2 -2q-34 21 -36 22zM722 524q-34 -176 -175 -323q-56 -58 -122 -70q-7 -1 -15.5 -1t-21 0.5t-19.5 0.5q67 112 85 142q1 2 3 3t5 2t4 2q4 2 12 5t13.5 6t8.5 7q48 73 101 163
q5 8 7 18.5t-1 17.5q-4 7 -5 12.5t1 12t3.5 9.5t6.5 11q2 2 26 42q2 5 48 82q13 -17 17 -24q20 -30 22 -58q2 -25 -4 -60z" />
    <glyph glyph-name="qq" unicode="&#xe780;" 
d="M225 425l-2 5l-1 6l-1 3v14l1 6l2 6l2 6l3 6l3 8l5 7v5l1 4v6l2 7l2 8l2 4l2 3l2 4l3 2v18l1 9l2 10l2 12l4 13l2 8l3 7l3 8l4 7l3 9l4 8l5 8l6 9l2 5l3 4l6 9l7 9l7 9l8 9l8 9l9 9l11 10l7 5l8 7l8 6l9 5l9 5l10 4l10 5l11 3l10 4l11 3l11 3l12 2l12 2l23 3l13 1h37
l12 -2l13 -1l12 -1l12 -3l12 -3l12 -3l13 -3l11 -4l11 -5l12 -5l11 -6l11 -6l10 -6l9 -6l4 -4l4 -3l9 -7l7 -6l7 -7l6 -8l6 -8l7 -7l4 -9l5 -7l5 -9l4 -7l7 -16l3 -8l3 -8l3 -8l2 -8l2 -7l2 -8l4 -14l2 -12l2 -12l1 -9l2 -15l1 -2l2 -3l4 -7l3 -5l3 -6l3 -5l3 -7l2 -7l2 -8
l2 -8v-4l1 -4v-4l-1 -5v-5l-1 -5l-2 -9l-3 -5l-1 -5v-2v-2l3 -4l11 -16l8 -12l5 -8l5 -9l5 -9l6 -11l5 -11l6 -14l4 -8l3 -8l3 -8l3 -8l2 -7l2 -8l3 -14l2 -15l1 -13v-19l-1 -6l-1 -11l-2 -11l-3 -9l-1 -3l-2 -5l-2 -3l-2 -4l-5 -6l-2 -2l-3 -2l-3 -2l-3 -1l-2 -1h-3l-2 1
l-4 2l-2 1l-2 2l-3 2l-2 2l-3 4l-5 6l-3 6l-3 4l-4 6l-4 9l-5 10l-1 1h-1l-2 -2l-1 -2l-2 -4l-4 -10l-5 -13l-7 -17l-5 -9l-6 -8l-6 -10l-7 -10l-3 -4l-5 -5l-9 -9l1 -1l1 -1l5 -3l20 -10l9 -5l8 -5l8 -6l8 -6l4 -3l2 -3l3 -4l2 -4l2 -4l1 -4l1 -3v-4v-3v-3l-1 -3l-1 -2
l-1 -3l-1 -2l-4 -5l-3 -4l-3 -3l-2 -2l-6 -4l-6 -4l-7 -3l-7 -4l-8 -3l-4 -1l-4 -1l-10 -2l-9 -2l-10 -2l-11 -2l-10 -1l-12 -1h-34l-13 1l-11 1l-13 2l-12 1l-13 2l-13 3l-13 2l-12 4l-12 4l-13 4l-6 2l-6 2l-4 2h-3h-11l-12 1l-6 1l-7 1l-5 -5l-7 -4l-9 -4l-11 -6l-6 -3
l-6 -2l-15 -6l-7 -2l-8 -2l-12 -3h-7l-7 -1l-8 -1h-9h-37h-21l-20 2l-11 2l-19 3l-10 2l-9 3l-9 2l-8 3l-8 3l-7 3l-6 4l-6 5l-2 2l-3 2l-2 3l-2 2l-2 3l-1 3l-2 5l-1 3l-1 4v3l1 3v3l1 4v7v3l2 4l1 5l3 4l2 2l1 3l4 4l3 3l3 1l3 3l4 1l3 2l4 2l5 2l5 1l6 1l11 2h7l2 1v0
l1 1v1l-1 1l-4 2l-9 8l-6 5l-7 6l-7 7l-7 9l-9 10l-3 5l-4 5l-4 7l-3 7l-5 7l-3 7l-3 8l-3 8l-3 8l-2 10l-1 1h-1v1h-1l-1 -1l-1 -1l-1 -1v-2l-1 -2l-1 -3l-5 -8l-2 -4l-3 -4l-4 -5l-4 -5l-4 -4l-5 -5l-5 -4l-5 -3l-5 -4l-5 -2l-7 -2h-6h-1h-2l-1 3l-2 1l-2 6l-2 3l-1 5
l-2 4v5l-2 10l-1 7v20l1 15l1 8l1 8l2 8l2 8l3 10l2 9l4 9l3 9l5 9l5 9l5 9l6 10l7 9l6 10l6 7l7 8l7 7l4 4l4 4l6 6l7 5l10 9l8 6z" />
    <glyph glyph-name="gengduo" unicode="&#xe667;" 
d="M890 302q-2 -104 -52.5 -190.5t-137 -137t-189.5 -52.5q-102 -1 -189.5 51t-138 139.5t-51.5 189.5q-2 102 50 189t140 137.5t189 52.5q102 2 189.5 -50.5t137.5 -140t52 -188.5q0 -19 16 -27t31 0t15 27q-3 170 -116 294t-282 144q-111 13 -214 -32t-172.5 -132
t-90.5 -196t14.5 -214t115 -181t185.5 -108q112 -30 215.5 -5.5t188 97t126.5 174.5q28 68 30 159q0 18 -15 26t-31 0t-16 -26zM507 137q72 71 143 143q9 9 9 21.5t-9 21.5q-71 72 -143 143q-13 14 -30 8t-21 -21t7 -30q72 -72 144 -143v43q-72 -71 -144 -143
q-9 -10 -8.5 -22.5t9.5 -20t20.5 -9.5t22.5 9v0z" />
    <glyph glyph-name="catalog" unicode="&#xe619;" 
d="M192 619q0 -17 -12 -29t-29 -12h-45q-17 0 -29 12t-12 29v44q0 17 12 29.5t29 12.5h45q17 0 29 -12.5t12 -29.5v-44zM192 363q0 -18 -12 -30t-29 -12h-45q-17 0 -29 12t-12 30v44q0 17 12 29t29 12h45q17 0 29 -12t12 -29v-44zM192 107q0 -17 -12 -29t-29 -12h-45
q-17 0 -29 12t-12 29v45q0 17 12 29t29 12h45q17 0 29 -12t12 -29v-45zM958 646q0 -13 -9.5 -22.5t-22.5 -9.5h-638q-13 0 -22.5 9.5t-9.5 22.5v0q0 13 9.5 22.5t22.5 9.5h638q13 0 22.5 -9.5t9.5 -22.5v0zM958 386q0 -13 -9.5 -22.5t-22.5 -9.5h-638q-13 0 -22.5 9.5
t-9.5 22.5v0q0 13 9.5 22.5t22.5 9.5h638q13 0 22.5 -9.5t9.5 -22.5v0zM958 130q0 -13 -9.5 -22.5t-22.5 -9.5h-638q-13 0 -22.5 9.5t-9.5 22.5v0q0 13 9.5 22.5t22.5 9.5h638q13 0 22.5 -9.5t9.5 -22.5v0z" />
    <glyph glyph-name="favour" unicode="&#xe603;" 
d="M63 584h182v-647h-182v647zM316 578l185 221q18 21 48.5 30t48.5 0v0v0q21 -10 34 -37.5t10 -57.5l-17 -171h256q35 0 59 -25t16 -52q-3 -9 -36.5 -138t-67 -250.5t-42.5 -133.5q-9 -13 -26.5 -19.5t-27 -7t-28.5 -0.5h-412v641z" />
    <glyph glyph-name="search" unicode="&#xe662;" 
d="M921 -28q-8 -7 -19 -7t-19 7l-215 212q-96 -77 -220 -77q-95 0 -175 46t-127 125t-47 172.5t47 172.5t127 125t175 46t175.5 -46t127 -125t46.5 -172q0 -132 -91 -230l215 -211q7 -8 7 -19t-7 -19v0v0v0zM448 741q-122 0 -208.5 -85t-86.5 -205.5t86.5 -205.5t208.5 -85
t208.5 85t86.5 205.5t-86.5 205.5t-208.5 85v0v0zM448 741z" />
    <glyph glyph-name="tsina" unicode="&#xe653;" 
d="M417.5 294.5q-12.5 5.5 -27 0.5t-22 -17t-4.5 -25t16 -18q12 -6 27 -1.5t22.5 17.5t4 25.5t-16 18zM459 311q-11 5 -18 -6.5t5 -16.5q11 -5 18 7t-5 16zM432.5 424q-81.5 -8 -135.5 -51.5t-48.5 -97t67 -85.5t143 -24t135.5 51.5t48.5 97t-67 85.5t-143 24zM528 256
q-16 -37 -57.5 -54.5t-82.5 -4.5q-39 12 -54 46t3 69q16 34 54.5 50.5t77.5 6.5q41 -10 58.5 -43t0.5 -70zM512 864q-98 0 -186.5 -38t-153 -102.5t-102.5 -153t-38 -186.5t38 -186.5t102.5 -153t153 -102.5t186.5 -38t186.5 38t153 102.5t102.5 153t38 186.5t-38 186.5
t-102.5 153t-153 102.5t-186.5 38zM459 119q-69 0 -131.5 20.5t-103.5 61t-41 92.5q0 86 98 184q62 61 125.5 86t90.5 -3q24 -23 7 -76q-4 -12 9 -10l7 2q51 22 90.5 22t55.5 -22q17 -24 0 -66q-3 -8 -0.5 -11t11.5 -5q33 -10 56.5 -33t23.5 -57q0 -31 -22 -63.5
t-59.5 -59.5t-95 -44.5t-121.5 -17.5v0zM706 463q7 23 -9 40.5t-39 12.5v0q-9 -2 -16.5 3t-9.5 13.5t3 16t14 9.5q48 10 80.5 -26t17.5 -82q-3 -9 -11 -13t-16.5 -1.5t-12.5 10.5t-1 17v0v0zM832 422v0q-3 -10 -12.5 -14.5t-19.5 -1.5t-14.5 12.5t-1.5 19.5v0
q10 30 3.5 62.5t-29 57.5t-54.5 35t-63 3q-11 -2 -19.5 3.5t-11 16t3.5 19t16 10.5v0q45 10 89.5 -4t76 -49t41 -81.5t-4.5 -88.5z" />
    <glyph glyph-name="question-1" unicode="&#xe633;" 
d="M576 396q-32 -14 -33 -41q1 27 33 41q42 18 69 59.5t28 87.5q-1 -46 -28 -87.5t-69 -59.5zM92 53q31 -10 134.5 -16.5t232.5 -1t198 28.5q260 86 303 324q18 99 -18.5 194.5t-117.5 164t-187 92.5q-81 16 -156.5 10.5t-142.5 -36t-119 -76t-86.5 -109.5t-43.5 -136
q-10 -81 16 -163q23 -72 11 -129q-7 -34 -30 -61q-12 -14 -19 -23q-14 -22 -7.5 -38.5t32.5 -24.5zM448 202q0 23 16.5 38.5t40 16t39.5 -15.5t16 -39q0 -24 -16 -40t-39 -16q-26 0 -42 16t-15 40zM342 551q12 80 36 111q30 38 81.5 52.5t98.5 -1.5q4 -1 10.5 -5t8.5 -5
q40 -19 66 -59t30 -88v-12q-1 -47 -28 -88.5t-69 -59.5q-32 -14 -33 -41v-7v-7q0 -17 -10 -28t-28 -12q-38 -2 -42 33v30v0q-1 33 0 46q3 44 44 52q37 6 58 30.5t20 54.5q0 15 -6 29q-10 24 -32 38.5t-47 13.5q-24 -1 -46 -19t-29 -43q-3 -12 -6 -28q-3 -20 -11 -27t-26 -6
q-18 2 -29 15t-11 31z" />
    <glyph glyph-name="del" unicode="&#xe6a5;" 
d="M128 711q0 20 14.5 34.5t34.5 14.5h247v49q0 20 14.5 34.5t34.5 14.5h99q20 0 34.5 -14.5t14.5 -34.5v-49h247q20 0 34.5 -14.5t14.5 -34.5v-49h-789v49zM868 564v-605q0 -20 -14.5 -34.5t-34.5 -14.5h-592q-21 0 -35.5 14.5t-14.5 34.5v654h691v-49zM375 466
q0 20 -14.5 34.5t-35 14.5t-35 -14.5t-14.5 -34.5v-409q0 -20 14.5 -34.5t35 -14.5t35 14.5t14.5 34.5v409v0zM572 466q0 20 -14.5 34.5t-35 14.5t-35 -14.5t-14.5 -34.5v-409q0 -20 14.5 -34.5t35 -14.5t35 14.5t14.5 34.5v409zM769 466q0 20 -14.5 34.5t-34.5 14.5
t-34.5 -14.5t-14.5 -34.5v-409q0 -20 14.5 -34.5t34.5 -14.5t34.5 14.5t14.5 34.5v409z" />
    <glyph glyph-name="email-1" unicode="&#xe60c;" 
d="M832 726h-640q-35 0 -71 -23t-36 -52v-15q15 -12 39.5 -32t90.5 -71.5t119.5 -90.5t106 -71t71.5 -32q29 0 136 74.5t199 147.5t92 74v16q0 29 -36 52t-71 23v0zM85 516v-421q5 -6 13 -14.5t36 -23.5t58 -15h640q29 0 55.5 14t39 25.5t12.5 13.5v423q-12 -11 -33.5 -29
t-80.5 -64t-110.5 -81.5t-109.5 -64t-93 -28.5q-34 0 -90.5 27t-113 66t-107.5 78.5t-84 66.5t-32 27v0v0zM85 516z" />
    <glyph glyph-name="time" unicode="&#xe6a8;" 
d="M830 702q-63 64 -145.5 98t-172.5 34t-172 -34t-146 -98t-98 -146t-34 -172t34 -172t98 -146t146 -98t172 -34t172.5 34t145.5 98q87 86 117.5 202t0 232t-117.5 202v0v0zM789 107q-56 -55 -127.5 -84.5t-149.5 -29.5t-149.5 29.5t-127 85t-85 127t-29.5 149.5
t29.5 149.5t85 127t127 85t150 29.5t149.5 -29.5t127 -84.5q75 -75 101.5 -176t0 -202t-101.5 -176v0v0zM707 274l-156 90v245q0 16 -11 26.5t-26.5 10.5t-26.5 -10.5t-11 -26.5v-263q0 -15 29 -32q2 -3 16 -11l155 -94q14 -8 27 -4t21 18q7 13 1.5 28t-18.5 23v0v0z
M707 274z" />
    <glyph glyph-name="qzone" unicode="&#xe7e1;" 
d="M513 832q-91 0 -174 -35.5t-143 -95.5t-95.5 -143t-35.5 -174t35.5 -173.5t95.5 -142.5t143 -95.5t174 -35.5t173.5 35.5t142.5 95.5t95.5 142.5t35.5 173.5t-35.5 174t-95.5 143t-142.5 95.5t-173.5 35.5zM833 450l-143 -130q-9 -9 -7 -20l3 -16q-129 1 -208 12v3
l202 137q8 5 0 6q-5 1 -14 2.5t-15 2l-6 0.5q-63 8 -132 8q-119 0 -212 -21h3h3q157 0 261 -16v-4l-202 -140l-4 -4q0 -1 4 -2q31 -4 65 -6h1q39 -3 81 -3q122 0 217 22l4 1q-13 -11 -44 -21l29 -154q2 -13 -4 -17t-18 2l-168 95q-17 10 -34 0l-167 -95q-11 -6 -17.5 -2
t-4.5 17l38 193q2 11 -5 18l-147 132q-9 9 -6.5 16t15.5 8l187 21q10 1 14 3.5t9 9.5l88 179q6 12 14 12t13 -12l83 -179q3 -9 7 -11.5t16 -3.5l192 -19q13 -1 15.5 -8t-6.5 -16z" />
    <glyph glyph-name="click" unicode="&#xe600;" 
d="M768 459q-14 0 -28 -4q-1 0 -3 1q-27 43 -77 43q-16 0 -32 -5q-26 45 -78 45q-9 0 -18 -2v51q0 40 -26.5 67t-65.5 27t-67 -27.5t-28 -66.5v-249l-14 15q-26 26 -66 26q-42 0 -68 -26q-28 -29 -31.5 -67.5t25.5 -71.5l213 -212q7 -7 17 -13q33 -27 75 -40t113 -13
q48 0 87 8t65 21.5t45 35.5t29.5 43.5t16.5 52t8 56t2 60.5v151q0 40 -27 67t-67 27v0zM825 214q0 -33 -1.5 -56.5t-6.5 -50.5t-14 -45t-25 -36t-39 -28.5t-55.5 -17t-74.5 -6.5q-64 0 -100.5 11t-65.5 35l-2 1q-6 4 -11 9l-212 211q-14 13 -15.5 30.5t4.5 31.5t16 24
q15 16 42 16q24 0 40 -16l78 -77v338q0 24 16.5 40.5t40.5 16.5q23 0 39 -16.5t16 -40.5v-108l1 1v-111q0 -8 5.5 -13.5t13 -5.5t13 5.5t5.5 13.5v129q9 3 17 3q18 0 32 -10.5t20 -28.5l2 -7v-121q0 -8 5.5 -13.5t13.5 -5.5t13 5.5t5 13.5v124q11 3 19 3q18 0 32 -10.5
t20 -28.5l1 -3v-122q0 -8 5.5 -13t13.5 -5t13.5 5t5.5 13v121q9 3 19 3q24 0 39.5 -16t15.5 -41v-151v0zM288 413q5 -3 11 -3q9 0 15 7q4 6 3 13.5t-7 12.5q-37 28 -57.5 68.5t-20.5 87.5q0 80 56.5 136.5t137 56.5t137 -56.5t56.5 -136.5q0 -20 -3 -39q-2 -8 2.5 -14
t12 -7.5t13.5 2.5t8 12q5 22 5 46q0 95 -68 163t-163.5 68t-163 -68t-67.5 -163q0 -55 24.5 -104t68.5 -82v0zM288 413z" />
    <glyph glyph-name="iyoyo-arrow-left-normal" unicode="&#xe64c;" 
d="M321 362l407 -417v-41l-432 445v59l432 456v-41l-407 -429v-32z" />
    <glyph glyph-name="arrow-right-big" unicode="&#xe606;" 
d="M355 869l279 -485l-279 -485q-5 -8 4 -13l8 -5q9 -5 14 4l282 490q5 4 4 9q1 6 -4 9l-282 490q-5 9 -14 4l-8 -5q-9 -5 -4 -13zM355 869l279 -485l-279 -485q-5 -8 4 -13l8 -5q9 -5 14 4l282 490q5 4 4 9q1 6 -4 9l-282 490q-5 9 -14 4l-8 -5q-9 -5 -4 -13z" />
    <glyph glyph-name="arrow-right-sm" unicode="&#xe60f;" 
d="M512 798q-113 0 -208.5 -55.5t-150.5 -151t-55 -207.5t55.5 -207.5t151 -151t207.5 -55.5t207.5 55.5t151 151t55.5 207.5t-55 207.5t-150.5 151t-208.5 55.5zM658 361l-206 -206q-9 -9 -22.5 -9t-22.5 9t-9 22t9 23l184 184l-183 182q-9 9 -9 22t9 22q10 9 23 9t21 -9
l206 -204q9 -9 9 -23q0 -13 -9 -22z" />
    <glyph glyph-name="teacher" unicode="&#xe613;" 
d="M335 654q0 74 52 126t126 52t126.5 -52t52.5 -126t-52.5 -126.5t-126.5 -52.5t-126 52.5t-52 126.5v0v0zM751 416h-33l-185 -376l69 346l-89 89l-89 -89l69 -346l-185 376h-33q-22 0 -39 -3.5t-29.5 -11.5t-21.5 -15.5t-14 -22.5l-8.5 -25.5t-4.5 -31t-1.5 -32.5
t-0.5 -37v-297h714v297v36.5t-1.5 33t-4.5 31t-8.5 25.5t-14.5 22.5t-21 15.5t-29.5 11.5t-39.5 3.5v0v0zM751 416z" />
    <glyph glyph-name="iyoyo-circle" unicode="&#xe63e;" 
d="M510 774q105 0 194.5 -52t141.5 -141.5t52 -194.5t-52 -194.5t-141.5 -141.5t-194.5 -52t-194.5 52t-141.5 141.5t-52 194.5t52 194.5t141.5 141.5t194.5 52zM510 830q-90 0 -172.5 -35.5t-141.5 -94.5t-94.5 -141.5t-35.5 -172.5t35.5 -172.5t94.5 -141.5t141.5 -94.5
t172.5 -35.5t172.5 35.5t141.5 94.5t94.5 141.5t35.5 172.5t-35.5 172.5t-94.5 141.5t-141.5 94.5t-172.5 35.5v0v0zM510 830z" />
    <glyph glyph-name="service" unicode="&#xe61c;" 
d="M214 537q-9 0 -15 6t-7 15v10q0 77 43 142.5t116.5 103.5t160.5 38t160.5 -38t116.5 -103.5t43 -142.5v-8q0 -9 -6.5 -15.5t-15.5 -6.5t-15 6t-6 15v9q0 100 -81 171t-196 71t-196 -71t-81 -171v-9q0 -9 -6 -15.5t-15 -6.5v0zM597 15q-8 0 -14 5t-7 13q-1 9 4.5 16
t14.5 8q58 8 107.5 51t66.5 101q3 8 10.5 12.5t16 2t13 -10.5t1.5 -16q-21 -71 -79.5 -122t-130.5 -60h-3v0zM512 -87q-44 0 -75.5 31t-31.5 75t31.5 75.5t75.5 31.5t75.5 -31.5t31.5 -75.5t-31.5 -75t-75.5 -31zM511.5 83q-26.5 0 -45 -18.5t-18.5 -45t18.5 -45.5t45 -19
t45.5 19t19 45.5t-19 45t-45.5 18.5zM278 171h-54q-75 0 -128 56.5t-53 135.5t53 135t128 56h54q8 0 14.5 -6t6.5 -15v-340q0 -9 -6.5 -15.5t-14.5 -6.5zM224 512q-58 0 -98.5 -44t-40.5 -105.5t40.5 -105t98.5 -43.5h32v298h-32zM799 191h-54q-8 0 -14.5 6.5t-6.5 15.5v341
q0 9 6.5 15t14.5 6h54q75 0 128 -56t53 -135.5t-53 -136t-128 -56.5zM767 234h32q57 0 97.5 44t40.5 105.5t-40.5 105.5t-97.5 44h-32v-299z" />
    <glyph glyph-name="box" unicode="&#xe62c;" 
d="M526 790l364 -137q10 -6 14 -14l101 -181q7 -12 3 -25.5t-16 -20.5q-1 0 -2.5 -0.5l-1.5 -0.5l-79 -41v-202q0 -23 -22 -32l-361 -153q-14 -7 -30 0v0l-364 155q-19 9 -19 30v0v202l-82 41q-12 6 -16.5 19.5t1.5 26.5v1l101 181q6 9 17 15l361 136q17 9 31 0v0zM491 62v0
v300l-57 -100q-4 -7 -12 -9.5t-15 1.5h-1l-224 112v-177zM491 474v0v238l-283 -97zM531 712v0v-238l282 141zM531 361v0v-300l309 128v178l-225 -113h-1q-7 -4 -15 -1.5t-12 9.5zM853 590v0l-314 -158l74 -133l315 158zM166 420v0l242 -121l75 133l-315 157l-74 -133l66 -32
q1 -1 3 -2t3 -2v0z" />
    <glyph glyph-name="question-2" unicode="&#xe669;" horiz-adv-x="1026" 
d="M513.5 834q-91.5 0 -175 -35.5t-143.5 -96t-96 -143.5t-36 -175t36 -175t96 -143.5t143.5 -96t175 -35.5t175 35.5t143.5 96t95.5 143.5t35.5 175t-35.5 175t-95.5 143.5t-143.5 96t-175 35.5zM510.5 72q-20.5 0 -34.5 14t-14 34.5t14 34.5t34.5 14t34.5 -14t14 -34.5
t-14 -34.5t-34.5 -14zM687 466.5q-13 -27.5 -57 -69.5q-43 -42 -57 -59.5t-21.5 -42t-6.5 -65.5h-75q0 48 7.5 77t23 50t56 63t52 60.5t11.5 56t-26.5 66t-77.5 28.5q-114 0 -114 -135h-75q1 62 14 94t41.5 57.5t63 37t73.5 11.5q78 0 129.5 -45.5t51.5 -122.5
q0 -34 -13 -61.5z" />
    <glyph glyph-name="shield" unicode="&#xe67a;" 
d="M895 755h-27q-65 0 -123.5 10.5t-94 24t-65 30.5t-39 24.5t-12.5 11.5l-23 24l-24 -24q-2 -3 -12 -11.5t-39 -25t-64.5 -30t-94 -24t-124.5 -10.5h-27l-32 1v-454q0 -42 7 -78t31.5 -85t66.5 -90.5t119 -88t181 -84.5l12 -4l11 4q104 38 181 84.5t119 88t67 90.5t31.5 85
t6.5 78v454zM475 184l-210 187l56 45l111 -83l18 18t45.5 42.5t69 60t81.5 61t89 53.5l21 -24q-8 -6 -21 -18t-50 -49.5t-70.5 -77.5t-73 -99t-66.5 -116v0v0zM475 184z" />
    <glyph glyph-name="email" unicode="&#xe626;" 
d="M848 -16h-666q-60 0 -102.5 42.5t-42.5 102.5v510q0 60 42.5 102.5t102.5 42.5h666q60 0 102.5 -42.5t42.5 -102.5v-510q0 -60 -42.5 -102.5t-102.5 -42.5v0zM182 743q-43 0 -73.5 -30.5t-30.5 -73.5v-510q0 -43 30.5 -73.5t73.5 -30.5h666q43 0 73.5 30.5t30.5 73.5v510
q0 43 -30.5 73.5t-73.5 30.5h-666v0zM505 364q-7 0 -12 4l-369 252q-7 5 -8.5 13.5t3 15.5t13 9t15.5 -3l358 -245l378 245q7 5 15.5 3t13.5 -9t3 -15.5t-9 -13.5l-390 -252q-5 -4 -11 -4z" />
    <glyph glyph-name="question-3" unicode="&#xe67d;" 
d="M511 819q79 0 150 -30t123 -84q98 -98 111.5 -237.5t-65.5 -254.5q-63 -93 -172 -139l-123 -125q-10 -9 -24 -9t-24 9l-122 125q-109 44 -173 139q-78 114 -65.5 254.5t111.5 237.5q53 54 123.5 84t149.5 30zM511 879q-91 0 -174 -34q-81 -34 -142 -97q-56 -56 -90 -128
q-32 -70 -39 -147t12 -152q19 -77 64 -142q37 -54 87 -95q46 -37 101 -61l114 -117q14 -13 32 -20q17 -7 35 -7t35 7q18 7 32 20v1v0l115 116q118 53 188 156q44 65 64 142q18 75 11 152t-39 147q-34 72 -89 128q-62 62 -143 97q-82 34 -174 34v0zM513 123q-16 0 -28 11.5
t-12 28.5t12 28.5t28.5 11.5t28.5 -11.5t12 -28.5t-12 -28.5t-29 -11.5v0zM689 522q-11 -59 -49 -97q-14 -17 -40 -32q-25 -12 -34 -23q-12 -16 -12 -55q0 -17 -12.5 -29.5t-30 -12.5t-29 11.5t-11.5 28.5q0 63 30 103q19 27 59 47q13 6 23 17q22 18 25 48q4 28 -10 55
l-7 10.5t-12 15.5q-28 27 -66 27q-12 0 -38 -8q-21 -9 -31 -21q-28 -28 -28 -66q0 -16 -11.5 -27t-28.5 -11t-28.5 11.5t-11.5 28.5q0 71 51 125q30 26 59 38q29 15 70 15q71 0 122 -51q18 -18 32 -42q25 -52 19 -106v0zM689 522z" />
    <glyph glyph-name="admin-list" unicode="&#xe632;" horiz-adv-x="1069" 
d="M185 603q-14 0 -23.5 -10t-9.5 -24t9.5 -23.5t23.5 -9.5h289q14 0 23.5 9.5t9.5 23.5t-9.5 24t-23.5 10h-289zM436 353q0 14 -10 24t-24 10h-217q-14 0 -23.5 -10t-9.5 -24t9.5 -23.5t23.5 -9.5h217q14 0 24 9.5t10 23.5v0v0zM1067 -69q-16 112 -83 187q-45 49 -98 74
q38 26 60.5 67.5t22.5 89.5q0 79 -56 135.5t-135 56.5t-135 -56.5t-56 -135.5q0 -49 23 -91t62 -68q-6 -2 -7 -3q-101 -46 -148 -155q-23 -53 -28 -100q-1 -13 7.5 -22.5t20.5 -10.5t21.5 7t10.5 21q5 41 23 83q39 87 118 122q142 64 249 -55q55 -61 68 -154
q2 -11 10.5 -18.5t19.5 -7.5h4q12 2 19.5 12t6.5 22v0v0v0zM778 481q54 0 92.5 -38.5t38.5 -93t-38.5 -93t-92.5 -38.5t-92.5 38.5t-38.5 93t38.5 93t92.5 38.5v0v0zM339 -52l-181 -1q-35 0 -59.5 25.5t-24.5 61.5v702q0 36 24.5 61.5t59.5 25.5h687q35 0 60 -25.5t25 -61.5
v-109q0 -14 9.5 -24t23.5 -10t24 10t10 24v0v0v109q0 64 -44.5 109t-107.5 45h-687q-63 0 -107.5 -45t-44.5 -109v-702q0 -64 44.5 -109t107.5 -45l181 1q13 0 23 9.5t10 23.5t-10 24t-23 10v0v0v0z" />
    <glyph glyph-name="ok" unicode="&#xe698;" 
d="M511 896q-104 0 -198.5 -41t-163 -109.5t-109 -163.5t-40.5 -199t41 -198.5t109.5 -163t163.5 -109t199 -40.5t198.5 41t163 109.5t109 163.5t40.5 199t-41 198.5t-109.5 163t-163.5 109t-199 40.5v0zM830 557l-386 -386q-8 -9 -20 -9t-20 9l-210 209q-8 8 -8 20t8 20
t20 8t20 -8l190 -189l365 366q9 9 20.5 9t20 -8.5t8.5 -20t-8 -20.5v0zM830 557z" />
    <glyph glyph-name="note" unicode="&#xe657;" 
d="M734 833h-551q-3 0 -7.5 -0.5t-17 -5t-22.5 -12t-19.5 -24t-12.5 -38.5v-733q0 -4 0.5 -9.5t5.5 -20t14 -26t28 -20.5t46 -9h642q3 0 8 1t18 6t23.5 12.5t19.5 24t11 37.5v593l-57 -61l-1 -555l-701 1v782h514zM804 794l87 -67l18 24q13 18 0 40q-13 20 -34 32q-4 2 -9 4
t-18 2t-22 -9zM863 691l-147 -196q-13 -24 -36 -35l-66 -31q-2 -1 -5 -1.5t-8.5 3t-7.5 13.5l12 72q-1 13 16 36l156 207zM318 324h386q0 -1 3 0t6 -4t3 -14v-18q-1 -1 -1.5 -2.5t-5 -4t-11.5 -1.5h-377q-13 -1 -14 12v23v0q2 9 11 9v0zM318 180h386l3 0.5t6 -4t3 -14.5v-17
q-1 -1 -1.5 -3t-5 -4t-11.5 -1h-377q-13 -1 -14 11v24v0q2 8 11 8v0zM318 180z" />
    <glyph glyph-name="people" unicode="&#xe6b6;" horiz-adv-x="1026" 
d="M787 -127q12 0 20 9t8 21l1 11v0q1 13 1 21q0 136 -70 248t-187 162l-18 8l16 11q56 40 87.5 104.5t31.5 136.5q0 121 -78.5 206t-189.5 85t-189.5 -85t-78.5 -206q0 -72 31.5 -136.5t87.5 -104.5l16 -11l-18 -8q-117 -50 -187 -162t-70 -248q0 -8 1 -21h1v-11
q0 -13 8 -22t20 -9q7 0 192 0.5t372.5 0.5h191.5zM719 326q108 -13 179 -102q70 -90 70 -213q0 -13 8.5 -22.5t20.5 -9.5q11 0 19.5 9t8.5 22v1v0q0 114 -58 206.5t-156 134.5l-17 8l15 11q47 33 73.5 86.5t26.5 113.5q0 84 -47.5 149.5t-122.5 84.5v0h-3q-1 0 -2 1h-0.5
h-0.5q-12 0 -20.5 -9.5t-8.5 -22.5q0 -12 7 -21t18 -11h1l1 -1q3 -1 7 -2h1v0q49 -18 79.5 -63.5t30.5 -101.5q0 -63 -37 -111t-94 -60l-1 -1h-3q-13 -1 -22.5 -12t-9.5 -25q0 -15 9.5 -26t23.5 -12h2zM719 326z" />
    <glyph glyph-name="discuss" unicode="&#xe737;" 
d="M936 854h-700q-29 0 -50 -21t-21 -51v-77h65v77q0 7 6 7h700q7 0 7 -7v-505q0 -7 -7 -7h-77v-64h77q30 0 50.5 20.5t20.5 50.5v505q1 30 -20 51t-51 21v0zM788 705h-700q-30 0 -50.5 -21t-20.5 -50v-506q0 -2 1 -9q3 -26 23 -44t47 -18h145q14 0 23.5 9.5t9.5 23t-9.5 23
t-23.5 9.5h-145q-7 0 -7 6v506q0 6 7 6h700q6 0 6 -6v-506q0 -6 -6 -6h-334q-10 -1 -18 -7q-1 0 -2 -1t-2 -1l-143 -143q-9 -10 -9 -23.5t9.5 -23t23 -9t22.5 9.5l133 133h320q29 0 50 21t21 50v142v364q0 29 -21 50t-50 21v0zM183 386.5q0 -20.5 14.5 -35.5t35.5 -15
t35.5 15t14.5 35.5t-14.5 35t-35.5 14.5t-35.5 -14.5t-14.5 -35zM388 386.5q0 -20.5 14.5 -35.5t35.5 -15t35.5 15t14.5 35.5t-14.5 35t-35.5 14.5t-35.5 -14.5t-14.5 -35zM592 386.5q0 -20.5 15 -35.5t35.5 -15t35 15t14.5 35.5t-14.5 35t-35 14.5t-35.5 -14.5t-15 -35z
" />
    <glyph glyph-name="location" unicode="&#xe607;" 
d="M459 -49q-22 24 -36 39t-51 59t-63.5 78.5t-61.5 86t-57 94.5t-37.5 91t-15.5 86q0 102 50 188.5t137 137t188.5 50.5t188.5 -50.5t137 -137t50 -188.5q0 -180 -322 -533q-16 -18 -22.5 -25t-17.5 -13t-14.5 -6t-13.5 6t-16.5 13t-22.5 24v0v0zM512 793
q-127 0 -217 -90.5t-90 -217.5q0 -39 13.5 -82t41 -90t53 -85t67.5 -87t65 -74.5t63 -68.5l4 -5l5 5q40 43 63 68.5t65 75t67.5 87.5t53 84.5t41 89.5t13.5 82q0 127 -90 217.5t-218 90.5v0zM512 298q-76 0 -130 54t-54 130.5t54 130.5t130.5 54t130.5 -54t54 -130.5
t-54 -130.5t-131 -54v0zM512 599q-48 0 -82 -34t-34 -82t34 -82.5t82.5 -34.5t82.5 34.5t34 82.5t-34 82t-83 34v0z" />
    <glyph glyph-name="admin" unicode="&#xe615;" 
d="M506.5 782q78.5 0 134 -54.5t55.5 -131.5t-55.5 -132t-134 -55t-134 55t-55.5 132t55.5 131.5t134 54.5zM506.5 782q78.5 0 134 -54.5t55.5 -131.5t-55.5 -132t-134 -55t-134 55t-55.5 132t55.5 131.5t134 54.5zM435 347h158q102 0 173.5 -70.5t71.5 -170.5v-15
q0 -13 -8 -22.5t-26 -15.5t-37 -9.5t-51 -5t-57 -2t-66 -0.5h-158q-44 0 -66 0.5t-56.5 2t-51.5 4.5t-36 9t-27 15.5t-8 23.5v15q0 100 72 170.5t173 70.5z" />
    <glyph glyph-name="heart" unicode="&#xe656;" 
d="M610 595q-53 0 -87 -45q-4 -6 -12 -6q-7 0 -11 6q-34 45 -86 45q-47 0 -80 -38t-33 -92q0 -109 103 -211q51 -50 103 -80q2 -1 4 -1q3 0 5 1q54 30 104 80q103 102 103 211q0 54 -33.5 92t-79.5 38z" />
    <glyph glyph-name="close" unicode="&#xe602;" 
d="M204 621h602v-601h-602v601zM329 478q-9 -9 -9 -21t9 -21l115 -115l-115 -115q-9 -9 -9 -21.5t9 -20.5l19 -20q9 -8 21 -8t21 8l115 116l115 -116q9 -8 21 -8t21 8l19 20q9 8 9 20.5t-9 21.5l-115 115l115 115q9 9 9 21t-9 21l-19 19q-9 9 -21 9t-21 -9l-115 -115
l-115 115q-9 9 -21 9t-21 -9z" />
    <glyph glyph-name="arrow-left-big" unicode="&#xe7ae;" 
d="M669 -101l-279 485l279 485q5 8 -4 13l-8 5q-9 5 -14 -4l-282 -490q-5 -4 -4 -9q-1 -6 4 -9l282 -490q5 -9 14 -4l8 5q9 5 4 13zM669 -101l-279 485l279 485q5 8 -4 13l-8 5q-9 5 -14 -4l-282 -490q-5 -4 -4 -9q-1 -6 4 -9l282 -490q5 -9 14 -4l8 5q9 5 4 13z" />
    <glyph glyph-name="talk" unicode="&#xe601;" horiz-adv-x="1193" 
d="M1140 246q0 116 -91.5 203t-222.5 98q0 1 -0.5 3t-0.5 3q-26 124 -142.5 206.5t-263.5 82.5q-110 0 -202.5 -47t-146.5 -128t-54 -176q0 -160 151 -272l-47 -146l166 85l17 -3q75 -15 117 -15q6 0 18 0.5t17 0.5q11 0 16 1q37 -89 125.5 -144.5t198.5 -55.5q40 0 114 19
l136 -76l-38 128q133 105 133 233zM978 33l-10 -8l21 -69l-75 42l-6 -2q-74 -19 -112 -19q-128 0 -219 78.5t-91 189t91 189t219 78.5q83 0 154.5 -36.5t114 -98t42.5 -133.5q-1 -55 -34 -109.5t-95 -101.5v0z" />
    <glyph glyph-name="half-circle" unicode="&#xe604;" 
d="M512 896q-138 0 -256 -69t-187 -187t-69 -256t69 -256t187 -187t256 -69t256 69t187 187t69 256t-69 256t-187 187t-256 69zM512 -64v896q187 0 317.5 -130.5t130.5 -317.5t-130.5 -317.5t-317.5 -130.5z" />
    <glyph glyph-name="arrow-left-sm" unicode="&#xe7e2;" 
d="M512 -30q113 0 208.5 55.5t150.5 151t55 207.5t-55.5 207.5t-151 151t-207.5 55.5t-207.5 -55.5t-151 -151t-55.5 -207.5t55 -207.5t150.5 -151t208.5 -55.5zM366 407l206 206q9 9 22.5 9t22.5 -9t9 -22t-9 -23l-184 -184l183 -182q9 -9 9 -22t-9 -22q-10 -9 -23 -9
t-21 9l-206 204q-9 9 -9 23q0 13 9 22z" />
    <glyph glyph-name="iyoyo-arrow-left-normal-entity" unicode="&#xe7e3;" 
d="M707 -96l-432 445v59l432 456v-960z" />
    <glyph glyph-name="fail" unicode="&#xe609;" horiz-adv-x="1349" 
d="M53 507q2 1 3 -2q7 -2 13 7q-6 11 -16 -5zM1158 -37q5 -5 13 5q-1 -1 -2.5 -1.5t-6 -1.5t-4.5 1l1 -1zM99 641l4 4q10 15 24 41t19 35q2 0 5 4q-3 2 11 23.5t28.5 46t12.5 32.5q13 3 15 16l-4.5 0.5t-7 1.5t-5.5 3.5t-3 6.5q-11 -30 -32 -68t-50 -85t-43 -73q14 9 26 12z
M198 833zM178 795q0 5 3 7q2 1 2 -1q1 -2 -5 -9v3zM160 756zM491 259q7 -12 30 -17q0 2 -2 2q1 0 1 1q2 1 3 3q-7 6 -32 11zM498 249q-8 4 -23 2q10 -9 20 -14q0 1 2 7zM469 257l6 -6q-18 2 -17 -2zM177 424q35 -23 102 -60t83 -47q6 -3 46 -21.5t48 -27.5q-7 -3 0 -3l21 3
q-8 6 1 9q-6 13 -15 3l-5 -1q-2 2 5 10q-4 12 -36.5 28t-45.5 11q-29 9 -72.5 35.5t-59.5 43.5q-17 8 -67 44t-92 58t-64 12q0 9 11 36q2 2 20.5 31.5t27.5 39.5q-4 -3 -11.5 -6.5t-9.5 -1.5q-2 -3 -9.5 -20t-14 -32t-5.5 -15q-8 0 -12.5 -5t-10 -15t-12.5 -17q6 -4 28 -19
t32 -20.5t27.5 -14.5t30.5 -12t25 -2q0 -8 -2 -11l29 -19zM43 508l-2 2q-1 2 4 9q0 -2 2 -6q2 -6 2 -7q-1 -1 -6 2zM56 505q-2 0 -3 2q10 17 16 5q-6 -9 -13 -7zM67 502q-1 0 -3 1q4 5 6 6q3 2 3 0q-1 -6 -6 -7zM1143 359q-68 50 -95 65q2 -3 0 -7q2 4 7 4q-97 56 -146 83
q-79 43 -98 50q-25 9 -22 -4q15 1 32 -9l10 -5q-1 -1 -4 -1t-4 -3q23 -9 66 -37t60 -37q48 -26 142 -81q1 0 8 -6q68 -52 71 -21q12 -14 62 -56t76 -46h6q-8 -10 -17 -20q-66 -84 -52 -99q-9 6 -10 -4q3 4 3 -3q-1 -15 -8 -16q-2 0 -4 2q8 5 7 14q-3 -6 -23 -39.5t-27 -53.5
q11 6 14 1q26 49 46 64q24 20 24 50q3 -2 3 -8q24 66 72 122q1 0 1 2l3 3q4 0 4 6q-1 1 -1.5 1h-0.5q-1 0 -4 1t-6 2.5t-6 4.5q-3 -4 3 -10q-1 -2 -7 -3q1 1 2 5q-1 1 -3 2q-5 3 -5 0l-2 -6v0h-1v0q-1 1 3 8q11 -12 18 -14q-3 6 2 10q-87 35 -158 75q1 -3 -9 4q-9 5 -19 14
q0 -4 -3 -6t3 -6l4 4q0 -2 3 -4q3 1 3 3l-12 -2zM1321 260zM1313 260q-1 0 -2 -2t-2 -3q2 1 5 3zM1305 260h-1l-2 1h2zM1260 284h-1h1zM1170 -46q3 18 23 58q-6 -9 -8 -9q-17 -12 -35.5 -47.5t-28.5 -46.5q5 -1 10 3q3 -7 -13 -3q-37 10 -73 33q-4 2 -5 3q2 6 -14 13.5
t-37.5 16.5t-28.5 16q4 6 0 10q-4 -2 -4.5 -10t-3.5 -10q13 14 -31 41t-98.5 52t-57.5 28q-1 7 5 9q-2 0 -5.5 1l-10.5 3t-12 3.5t-5 0.5q1 0 -17.5 11t-45.5 27l-54 32t-46 27.5t-18 11.5q-12 -11 -20.5 -7t-12.5 0q9 -13 29.5 -26.5t52 -29t36.5 -18.5q89 -51 134 -77
q6 -3 26 -7q28 -6 28 -11q1 -4 -6 -8q5 -2 14.5 -9.5t17.5 -13.5t19 -11.5t18 -5.5t14 5q-5 -11 2 -14q1 1 33.5 -13.5l32.5 -14.5q-5 -6 10.5 -23t24.5 -23q15 -9 44 -22.5t40.5 -19.5t20 -6.5t14 3t10.5 11.5t8.5 16.5t10.5 20.5t14 21l-1 9v0zM1170 -9v-1v1zM1174 -26
q-8 -10 -12 -2q5 9 12 2zM1157 -36q2 -1 5 -0.5t5 1.5l3 1q-8 -9 -13 -4l-1 1zM1144 -59q2 1 5 3t5 3t2 0q-3 -4 -12 -6zM571 208q0 2 1 3q4 6 6 4q2 -1 -6 -10zM593 200zM983 -37h1h-1zM216 860q2 -1 1 -6q25 28 14 31q-11 -3 -19 -10.5t-1 -14.5h5zM757 589q-3 -4 -2 -9
t2.5 -6.5l5 -5l4.5 -4.5q1 -2 1 -1q1 7 -4 12l12 3l-2 3q-17 26 -19 2q0 6 6 8zM246 878q5 -6 10 -9l5 -3q1 -1 2.5 -3t2.5 -3q4 6 3 7q3 -3 -1 -9q3 -2 6 -7q1 2 4 2q1 0 1 -1q1 -1 -2 -5q7 -8 12.5 -7t10.5 16q17 -4 -3 -24q2 0 6 -1.5t6 -2.5q-8 5 -2 7l3 -2t2.5 -3
l-1.5 -3q29 -13 41 -16q-10 3 -1 5q-4 0 -9 1t-6 1q0 5 27 1l-3 -4q0 -5 0.5 -6t2.5 0t2 0q-3 -6 2 -10l2 1q1 -2 2.5 -9t2.5 -7q2 -16 21 -24t27 -4q5 -5 15 -12q1 2 3 2t3 1q3 -2 -3 -5q30 -20 104.5 -62.5t133.5 -75.5t60 -35q1 19 -17.5 39t-39 32t-54.5 30.5t-44 24.5
q4 -2 11 -7h-1v1h-1l-1 1h-1v0l-1 1h-1l-1 1v1h-1l-1 1h-1l-1 1h-1l-1 1l-1 1h-1v1q-8 4 -39 20q-38 19 -39 22q0 1 5 0q-11 6 -28 16.5t-31.5 18.5t-29.5 15q-10 -10 -15.5 -10.5t-7 5t-2.5 13t-4 9.5q-4 -2 -9 -3q4 5 -7 11q0 -1 -1 -2t-1 -2q0 3 -5 8q9 -2 11 -3
q-8 3 -26.5 17t-35 23.5t-24.5 5.5q6 1 -3 -11q0 12 -18.5 29.5t-34.5 15.5q5 -6 5.5 -9t2.5 -5q-8 -9 -5 -10t9 6zM375 805zM352 563q4 -38 20 -79.5t38 -72.5q-10 -1 -26 -9q-43 64 -52 153l-63 -108l-22 13l62 107q-77 -35 -158 -31q-2 19 -5 27q38 -4 81.5 3t78.5 24
l-100 58l12 21l113 -65l28 49l-92 54l12 20l91 -53l28 46l22 -13l-27 -46l94 -55l-12 -20l-95 55l-28 -50l115 -65l-13 -21zM569 345q2 -3 5.5 -12t7.5 -15q14 -26 67 -57q57 -32 108 -55q-12 -8 -18 -17q-44 21 -101 55q-54 31 -69 61q-3 5 -6.5 13t-6 13t-5.5 6
q-12 7 -59 -13l-3 25q38 13 60 10l46 81l-39 23l11 20l60 -35zM641 484q-4 31 -20 76l21 3q17 -44 22 -75zM613 305l-20 11l84 147l81 -47q-16 25 -41 56l20 4q11 -13 32 -40q24 -2 54 1l-119 69l10 16l139 -80l5 -2l7 -17q-32 -9 -81 -8q3 -5 14 -23l37 -21l-72 -125
q-8 -15 -21 -13q-10 0 -40 18q4 10 4 21q6 -3 12.5 -7t11 -6.5t5.5 -3.5q5 -3 7 1l15 27l-49 29l-27 -47l-19 14l27 46l-48 28zM689 436l-15 -25l48 -27l15 25zM698 341l15 26l-48 28l-15 -26zM756 397l-15 -25l49 -28l15 24zM766 302l15 26l-49 29l-15 -27zM923 148
q1 -3 5 -11.5t7 -15.5q14 -26 66 -56q58 -33 107 -55q-15 -10 -20 -19q-29 14 -99 54q-54 31 -69 61q-3 5 -6.5 13t-6 13t-4.5 7q-11 6 -59 -15l-3 29q41 12 63 9l42 74l-38 22l11 20l60 -35l-56 -95v0zM991 288q0 28 -14 73l22 2q15 -45 16 -73zM1128 204l-109 63l11 21
l110 -64l29 50l21 -12l-29 -50l40 -23l-12 -21l-39 23l-65 -112q-11 -19 -27 -16t-56 27q5 13 5 26q28 -18 46 -28q8 -4 11 3zM1035 227q9 -56 9 -79l-23 -1q1 31 -7 80h21z" />
    <glyph glyph-name="pass" unicode="&#xe60d;" horiz-adv-x="1349" 
d="M53 507q2 1 3 -2q7 -2 13 7q-6 11 -16 -5zM1158 -37q5 -5 13 5q-1 -1 -2.5 -1.5t-6 -1.5t-4.5 1l1 -1zM99 641l2 2l1 1l1 1q10 15 24 41t19 35q2 0 5 4q-3 2 11 23.5t28.5 46t12.5 32.5q13 3 15 16l-4.5 0.5t-7 1.5t-5.5 3.5t-3 6.5q-11 -30 -32 -68t-50 -85t-43 -73
q14 9 26 12zM198 833zM178 795q0 5 3 7q2 1 2 -1q1 -2 -5 -9v3zM160 756zM491 259q7 -12 30 -17q0 2 -2 2q1 0 1 1q2 1 3 3q-7 6 -32 11zM498 249q-8 4 -23 2q10 -9 20 -14q0 1 2 7zM469 257l6 -6q-18 2 -17 -2zM177 424q35 -23 102 -60t83 -47q6 -3 46 -21.5t48 -27.5
q-7 -3 0 -3l21 3q-8 6 1 9q-6 13 -15 3l-5 -1q-2 2 5 10q-4 12 -36.5 28t-45.5 11q-29 9 -72.5 35.5t-59.5 43.5q-17 8 -67 44t-92 58t-64 12q0 9 11 36q2 2 20.5 31.5t27.5 39.5q-4 -3 -11.5 -6.5t-9.5 -1.5q-2 -3 -9.5 -20t-14 -32t-5.5 -15q-8 0 -12.5 -5t-10 -15
t-12.5 -17q6 -4 28 -19t32 -20.5t27.5 -14.5t30.5 -12t25 -2q0 -8 -2 -11l29 -19zM43 508q0 2 -0.5 2.5t-1.5 -0.5q-1 2 4 9q0 -2 2 -6q2 -6 2 -7q-1 -1 -6 2zM56 505q-2 0 -3 2q10 17 16 5q-6 -9 -13 -7zM67 502q-1 0 -3 1q4 5 6 6q3 2 3 0q-1 -6 -6 -7zM1143 359
q-68 50 -95 65q2 -3 0 -7q2 4 7 4q-98 56 -146 83q-79 43 -98 50q-25 9 -22 -4q15 1 32 -9l10 -5q-1 -1 -4 -1t-4 -3q23 -9 66 -37t60 -37q48 -26 142 -81q1 0 8 -6q68 -52 71 -21q12 -14 62 -56t76 -46h2h4q-8 -10 -17 -20q-66 -84 -52 -99q-9 6 -10 -4q3 4 3 -3
q-1 -15 -8 -16q-2 0 -4 2q8 5 7 14q-3 -6 -23 -39.5t-27 -53.5q11 6 14 1q26 49 46 64q24 20 24 50q3 -2 3 -8q24 66 72 122q1 0 1 2l3 3q4 0 4 6v0l-2 1q-1 0 -4 1t-6 2.5t-6 4.5q-3 -4 3 -10q-1 -2 -7 -3q1 1 2 5q-1 1 -3 2q-5 3 -5 0l-2 -6v0h-1v0q-1 1 3 8
q11 -12 18 -14q-3 6 2 10q-87 35 -158 75q1 -3 -9 4q-9 5 -19 14q0 -4 -3 -6t3 -6l4 4q0 -2 3 -4q3 1 3 3l-12 -2zM1321 260zM1313 260q-1 0 -2 -2t-2 -3q2 1 5 3zM1305 260h-1l-2 1h2zM1260 284h-1h1zM1170 -46q3 18 23 58q-6 -9 -8 -9q-17 -12 -35.5 -47.5t-28.5 -46.5
q5 -1 10 3q3 -7 -13 -3q-37 10 -73 33q-4 2 -5 3q2 6 -14 13.5t-37.5 16.5t-28.5 16q4 6 0 10q-4 -2 -4.5 -10t-3.5 -10q13 14 -31 41t-98.5 52t-57.5 28q-1 7 5 9q-2 0 -5.5 1l-10.5 3t-12 3.5t-5 0.5q1 0 -17.5 11t-45.5 27l-54 32t-46 27.5t-18 11.5q-12 -11 -20.5 -7
t-12.5 0q9 -13 29.5 -26.5t52 -29t36.5 -18.5q89 -51 134 -77q6 -3 26 -7q28 -6 28 -11q1 -4 -6 -8q5 -2 14.5 -9.5t17.5 -13.5t19 -11.5t18 -5.5t14 5q-5 -11 2 -14q1 1 33.5 -13l32.5 -14q-5 -7 10.5 -24t24.5 -23q15 -9 44 -22.5t40.5 -19.5t20 -6.5t14 3t10.5 11.5
t8.5 16.5t10.5 20.5t14 21zM1170 -9v-1v1zM1174 -26q-8 -10 -12 -2q5 9 12 2zM1157 -36q2 -1 5 -0.5t5 1.5l3 1q-8 -9 -13 -4l-1 1zM1144 -59q2 1 5 3t5 3t2 0q-3 -4 -12 -6zM571 208q0 2 1 3q4 6 6 4q2 -1 -6 -10q-1 2 -1 3zM593 200zM983 -37h1h-1zM216 860q2 -1 1 -6
q25 28 14 31q-11 -3 -19 -10.5t-1 -14.5h5zM757 589q-3 -4 -2 -9t2.5 -6.5l5 -5l4.5 -4.5q1 -2 1 -1q1 7 -4 12l12 3l-2 3q-17 26 -19 2q0 6 6 8zM246 878q5 -6 10 -9l5 -3q1 -1 2.5 -3t2.5 -3q4 6 3 7q3 -3 -1 -9q3 -2 6 -7q1 2 4 2q1 0 1 -1q1 -1 -2 -5q7 -8 12.5 -7
t10.5 16q17 -4 -3 -24q2 0 6 -1.5t6 -2.5q-7 5 -2 7l2 -1q6 -5 2 -7q29 -13 41 -16q-10 3 -1 5q-4 0 -9 1t-6 1q0 5 27 1l-3 -4q0 -5 0.5 -6t2.5 0t2 0q-3 -6 2 -10l2 1q1 -2 2.5 -9t2.5 -7q2 -16 21 -24t27 -4q5 -5 15 -12q1 2 3 2t3 1q3 -2 -3 -5q30 -20 104.5 -62.5
t133.5 -75.5t60 -35q1 19 -17.5 39t-39 32t-54.5 30.5t-44 24.5q4 -2 11 -7h-1l-1 1v0l-1 1h-1v1h-1l-1 1h-1l-1 1h-1v1h-1l-1 1h-1l-1 1l-1 1l-1 1q-8 4 -39 20q-38 19 -39 22q0 1 5 0q-11 6 -28 16.5t-31.5 18.5t-29.5 15q-10 -10 -15.5 -10.5t-7 5t-2.5 13t-4 9.5
q-4 -2 -9 -3q4 5 -7 11q0 -1 -1 -2t-1 -2q0 3 -5 8q9 -2 11 -3q-8 3 -26.5 17t-35 23.5t-24.5 5.5q6 1 -3 -11q0 12 -18.5 29.5t-34.5 15.5q5 -6 5.5 -9t2.5 -5q-8 -9 -5 -10t9 6zM375 805zM363 464q2 -3 6 -12t7 -15q14 -27 67 -57q57 -32 108 -55q-11 -9 -18 -18
q-44 22 -101 56q-53 30 -69 60q-3 5 -6.5 13t-6 13t-5.5 7q-11 6 -59 -14l-3 26q38 12 60 10l46 80l-39 23l11 20l60 -34zM435 603q-5 32 -21 76l21 4q17 -45 23 -75zM407 424l-20 12l85 146l80 -47q-16 25 -41 56l20 4q12 -13 32 -40q24 -2 54 1l-119 69l10 17l139 -81
l5 -2l7 -17q-32 -9 -81 -7q4 -6 15 -23l37 -22l-73 -125q-8 -14 -20 -13q-11 1 -41 19q4 9 4 20q6 -3 12.5 -7t11 -6.5t5.5 -3.5q5 -4 8 2l14 26l-49 29l-27 -46l-19 10l27 47l-48 27zM482 554l-15 -24l48 -28l15 25zM491 460l15 27l-48 27l-14 -26zM549 516l-15 -24l50 -29
l14 25zM560 421l14 26l-49 29l-15 -26zM780 230q2 -3 5.5 -11.5t7.5 -14.5q13 -27 65 -57q58 -33 107 -54q-14 -11 -19 -19q-30 13 -99 53q-54 31 -69 61q-3 5 -6.5 13t-6 13t-5.5 7q-10 7 -58 -15l-3 29q41 12 62 9l43 74l-39 22l12 20l60 -34zM849 370q0 28 -14 73l22 2
q14 -45 15 -73zM985 286l-109 63l11 21l110 -63l28 50l22 -13l-29 -50l40 -23l-12 -20l-39 23l-65 -113q-12 -19 -28 -15.5t-56 26.5q5 14 5 26q29 -17 46 -27q8 -5 12 2zM893 309q9 -56 9 -79l-24 -1q1 31 -6 80h21z" />
    <glyph glyph-name="iyoyo-arrow-top-normal" unicode="&#xe7e4;" 
d="M490 575l-417 -407h-41l445 432h59l456 -432h-41l-429 407h-32z" />
  </font>
</defs>
</svg>
